<svg width="80" height="94" viewBox="0 0 80 94" fill="none" xmlns="http://www.w3.org/2000/svg">
<path d="M15.4403 14.398L40.0001 0L64.5597 14.398L55.5304 19.717L40.0001 10.638L24.4696 19.717L15.4403 14.398ZM64.5597 32.5561L55.5304 27.237L40.0001 36.3161L24.4696 27.237L15.4403 32.5561V43.1942L30.9706 52.2732V70.4312L40.0001 75.7502L49.0294 70.4312V52.2732L64.5597 43.1942V32.5561ZM64.5597 61.3521V50.7142L55.5304 56.0332V66.6712L64.5597 61.3521ZM70.9707 65.1121L55.4402 74.1912V84.8293L80 70.4312V41.6351L70.9707 46.9542V65.1121ZM61.9414 23.477L70.9707 28.7961V39.4342L80 34.1151V23.477L70.9707 18.1581L61.9414 23.477ZM30.9706 78.043V88.6809L40.0001 94L49.0294 88.6809V78.043L40.0001 83.3619L30.9706 78.043ZM15.4403 61.3521L24.4696 66.6712V56.0332L15.4403 50.7142V61.3521ZM30.9706 23.477L40.0001 28.7961L49.0294 23.477L40.0001 18.1581L30.9706 23.477ZM9.02933 28.7961L18.0586 23.477L9.02933 18.1581L0 23.477V34.1151L9.02933 39.4342V28.7961ZM9.02933 46.9542L0 41.6351V70.4312L24.5598 84.8293V74.1912L9.02933 65.1121V46.9542Z" fill="#F0B90B"/>
</svg>
