<svg width="158" height="28" viewBox="0 0 158 28" fill="none" xmlns="http://www.w3.org/2000/svg">
<g clip-path="url(#clip0_100_2)">
<path d="M4.62732 4.28878L11.9877 0L19.348 4.28878L16.642 5.87315L11.9877 3.16878L7.33333 5.87315L4.62732 4.28878ZM19.348 9.69755L16.642 8.11315L11.9877 10.8175L7.33333 8.11315L4.62732 9.69755V12.8664L9.28163 15.5708V20.9795L11.9877 22.5639L14.6937 20.9795V15.5708L19.348 12.8664V9.69755ZM19.348 18.2751V15.1063L16.642 16.6908V19.8595L19.348 18.2751ZM21.2693 19.3951L16.615 22.0995V25.2683L23.9753 20.9795V12.4019L21.2693 13.9864V19.3951ZM18.5633 6.99315L21.2693 8.57755V11.7464L23.9753 10.162V6.99315L21.2693 5.4088L18.5633 6.99315ZM9.28163 23.2468V26.4156L11.9877 28L14.6937 26.4156V23.2468L11.9877 24.8312L9.28163 23.2468ZM4.62732 18.2751L7.33333 19.8595V16.6908L4.62732 15.1063V18.2751ZM9.28163 6.99315L11.9877 8.57755L14.6937 6.99315L11.9877 5.4088L9.28163 6.99315ZM2.70602 8.57755L5.41202 6.99315L2.70602 5.4088L0 6.99315V10.162L2.70602 11.7464V8.57755ZM2.70602 13.9864L0 12.4019V20.9795L7.36037 25.2683V22.0995L2.70602 19.3951V13.9864Z" fill="#F0B90B"/>
<path d="M45.3089 17.5719V17.5273C45.3089 15.4348 44.2063 14.3885 42.4201 13.6984C43.5227 13.0751 44.4489 12.0956 44.4489 10.337V10.2925C44.4489 7.84373 42.5083 6.26318 39.3549 6.26318H32.1881V21.846H39.5313C43.0155 21.846 45.3089 20.4213 45.3089 17.5719ZM41.075 10.9158C41.075 12.0734 40.1267 12.5631 38.6272 12.5631H35.4959V9.26843H38.8477C40.2811 9.26843 41.075 9.84723 41.075 10.8712V10.9158ZM41.935 17.1489C41.935 18.3065 41.0309 18.8407 39.5313 18.8407H35.4959V15.4125H39.4211C41.1632 15.4125 41.935 16.0581 41.935 17.1044V17.1489Z" fill="#F0B90B"/>
<path d="M62.039 21.846V6.26318H58.6873V15.8577L51.4545 6.26318H48.3229V21.846H51.6749V11.9398L59.1504 21.846H62.039Z" fill="#F0B90B"/>
<path d="M79.0862 17.5719V17.5273C79.0862 15.4348 77.9837 14.3885 76.1971 13.6984C77.2997 13.0751 78.2259 12.0956 78.2259 10.337V10.2925C78.2259 7.84373 76.2853 6.26318 73.1322 6.26318H65.9653V21.846H73.3086C76.7925 21.846 79.0862 20.4213 79.0862 17.5719ZM74.8524 10.9158C74.8524 12.0734 73.9039 12.5631 72.4046 12.5631H69.2729V9.26843H72.625C74.0584 9.26843 74.8524 9.84723 74.8524 10.8712V10.9158ZM75.7122 17.1489C75.7122 18.3065 74.8078 18.8407 73.3086 18.8407H69.2729V15.4125H73.1981C74.9406 15.4125 75.7122 16.0581 75.7122 17.1044V17.1489Z" fill="#F0B90B"/>
<path d="M99.5529 19.0933L97.8109 17.3124C96.488 18.559 95.275 19.3382 93.3785 19.3382C90.4236 19.3382 88.2849 16.8449 88.2849 13.7729C88.2849 10.7008 90.4236 8.25207 93.3785 8.25207C95.1428 8.25207 96.4657 9.03122 97.701 10.1888L99.4429 8.16307C97.9655 6.73832 96.2453 5.73657 93.4008 5.73657C88.7257 5.73657 85.4399 9.36517 85.4399 13.8174C85.4399 18.3141 88.7921 21.8537 93.2904 21.8537C96.1794 21.8537 97.9432 20.7851 99.5529 19.0933Z" fill="#F0B90B"/>
<path d="M112.702 15.0194V21.5865H115.415V6.00366H112.702V12.4817H105.337V6.00366H102.625V21.5865H105.337V15.0194H112.702Z" fill="#F0B90B"/>
<path d="M127.582 5.89233H125.068L118.276 21.5864H121.055L122.642 17.8243H129.941L131.507 21.5864H134.374L127.582 5.89233ZM128.949 15.3978H123.635L126.281 9.16473L128.949 15.3978Z" fill="#F0B90B"/>
<path d="M137.396 6.00366V21.5865H140.108V6.00366H137.396Z" fill="#F0B90B"/>
<path d="M155.244 16.7781L146.975 6.00366H144.461V21.5865H147.129V10.5004L155.641 21.5865H157.912V6.00366H155.244V16.7781Z" fill="#F0B90B"/>
</g>
<defs>
<clipPath id="clip0_100_2">
<rect width="158" height="28" fill="white"/>
</clipPath>
</defs>
</svg>
