<svg width="19" height="24" viewBox="0 0 19 24" fill="none" xmlns="http://www.w3.org/2000/svg">
<path d="M18.6164 9.6C18.616 9.6 18.6155 9.59982 18.6152 9.59949C18.6149 9.59916 18.6147 9.59872 18.6147 9.59825C18.617 9.51258 18.6182 9.42662 18.6182 9.34051C18.6182 4.18196 14.4503 0 9.30909 0C4.16785 0 0 4.18182 0 9.34051C0 9.42676 0.00116364 9.51258 0.00349091 9.59825C0.00349091 9.59872 0.00330701 9.59916 0.00297968 9.59949C0.00265234 9.59982 0.00220838 9.6 0.00174545 9.6C0.00128253 9.6 0.000838568 9.60018 0.000511232 9.60051C0.000183896 9.60084 0 9.60128 0 9.60175L0 23.0919C0 23.5935 0.405236 24 0.905018 24H17.7132C18.2129 24 18.6182 23.5935 18.6182 23.0919V9.60175C18.6182 9.60128 18.618 9.60084 18.6177 9.60051C18.6173 9.60018 18.6169 9.6 18.6164 9.6Z" fill="#EBEBEB"/>
</svg>
