<svg width="133" height="133" viewBox="0 0 133 133" fill="none" xmlns="http://www.w3.org/2000/svg">
<mask id="mask0_75_15" style="mask-type:luminance" maskUnits="userSpaceOnUse" x="0" y="0" width="133" height="133">
<path d="M132.938 0H0V132.938H132.938V0Z" fill="white"/>
</mask>
<g mask="url(#mask0_75_15)">
<path fill-rule="evenodd" clip-rule="evenodd" d="M8.50948 14.6266L3.499 14.3611L3.47631 19.4213L3.47375 20.4764C3.47228 21.2977 3.4703 22.7163 3.46831 25.1061C3.46428 29.8855 3.46031 38.5527 3.46031 54.1061V56.1039L9.39708 62.0915C7.04637 63.5833 4.68461 65.0576 2.31196 66.5148L0.0186033 67.9232L0 101.28L27.3834 128.915L29.1816 129.033C62.7818 131.247 97.3384 128.791 129.715 117.526L132.938 116.405V76.3216L125.933 69.2573C127.127 68.069 128.318 66.871 129.5 65.6651L130.881 64.2555V62.2736C130.881 60.9055 130.885 53.7414 130.889 46.9159L130.898 31.611L102.694 3.16522L99.8864 4.11374C70.736 13.9623 39.4716 16.2658 8.50948 14.6266ZM101.405 8.68718L126.115 33.6077C126.115 33.6077 126.099 59.5339 126.099 62.2736C124.924 63.4716 123.74 64.6639 122.552 65.8466C121.414 66.9793 120.272 68.1041 119.131 69.2182L128.155 78.3193V112.966C96.5573 123.961 62.6786 126.407 29.493 124.22L4.7836 99.284L4.79953 70.634C7.50163 68.9748 10.1901 67.293 12.8647 65.5885C14.2448 64.7087 15.6209 63.8233 16.9936 62.9316L8.24277 54.1061C8.24277 37.5975 8.24731 28.8486 8.25151 24.2728C8.25525 20.2268 8.25877 19.4429 8.25877 19.4429C9.85131 19.5274 11.4455 19.6017 13.0405 19.6647C42.833 20.8473 73.0242 18.2761 101.405 8.68718Z" fill="white"/>
<path fill-rule="evenodd" clip-rule="evenodd" d="M101.405 8.68707C71.5046 18.7894 39.5941 21.1026 8.25838 19.4429C8.25838 19.4429 8.24244 23.0011 8.24244 54.1061L16.993 62.9316C12.9611 65.5511 8.89571 68.1183 4.79914 70.634L4.7832 99.284L29.4924 124.22C62.6786 126.407 96.5568 123.961 128.155 112.966V78.3193L119.131 69.2182C121.462 66.9408 123.799 64.6191 126.099 62.2736C126.099 59.5339 126.114 33.6071 126.114 33.6071L101.405 8.68707ZM116.533 60.1034V46.2126L116.517 46.1961C94.9963 52.2575 73.4752 54.5565 51.954 54.5565C48.798 54.5565 45.6572 54.5083 42.5006 54.4119V69.782C45.689 69.8784 48.8615 69.9266 52.0499 69.9266C63.129 69.9266 74.2086 69.3157 85.2882 67.8846C69.8886 80.3772 54.4731 91.2935 39.0575 101.181V115.072C43.3617 115.249 47.6658 115.346 51.9699 115.346C74.1768 115.346 96.3832 112.886 118.606 106.391V91.0207C102.489 95.715 86.404 98.3033 70.3032 99.381C85.7023 87.8533 101.118 74.9268 116.533 60.1034Z" fill="#0D0D0D"/>
<path d="M116.534 46.2126V60.1034C101.119 74.9267 85.7034 87.8533 70.3038 99.381C86.4045 98.3038 102.49 95.715 118.607 91.0207C118.607 96.1495 118.607 101.262 118.607 106.391C96.3843 112.886 74.1774 115.346 51.971 115.346C47.6669 115.346 43.3628 115.249 39.0581 115.073V101.181C54.4736 91.2941 69.8892 80.3772 85.2888 67.8852C74.2097 69.3157 63.1301 69.9266 52.0504 69.9266C48.8621 69.9266 45.6901 69.8784 42.5017 69.782C42.5017 64.6531 42.5017 59.5407 42.5017 54.4118C45.6578 54.5083 48.7985 54.5565 51.9551 54.5565C73.4763 54.5565 94.9975 52.2575 116.519 46.1961L116.534 46.2126Z" fill="white"/>
</g>
</svg>
