<svg width="86" height="106" viewBox="0 0 86 106" fill="none" xmlns="http://www.w3.org/2000/svg">
<path d="M0.530274 57.1428C0.186419 57.547 -0.00163449 58.0608 1.07039e-05 58.5914L0.00708088 77.5372V83.7099H33.6399V67.0326H14.1192L51.6582 22.6539C52.0021 22.2496 52.1902 21.7358 52.1885 21.2052V2.25596C52.1885 0.153623 49.5443 -0.800377 48.1833 0.80729L0.530274 57.1428ZM85.8213 22.0144V28.1906L85.8284 47.1364C85.8284 47.6664 85.6411 48.1787 85.2981 48.585L37.6487 104.92C36.2877 106.528 33.647 105.574 33.647 103.472V84.519C33.647 83.989 33.8343 83.4802 34.1772 83.0739L71.7128 38.6952H52.192V22.0179L85.8213 22.0144Z" fill="white"/>
</svg>
