<svg width="114" height="30" viewBox="0 0 114 30" fill="none" xmlns="http://www.w3.org/2000/svg">
<g clip-path="url(#clip0_1_46)">
<path d="M0.15 16.173C0.0527309 16.2874 -0.000465389 16.4328 0 16.583L0.002 21.945V23.692H9.516V18.972H3.994L14.613 6.412C14.7103 6.29758 14.7635 6.15218 14.763 6.002V0.639C14.763 0.0439997 14.015 -0.226 13.63 0.229L0.15 16.173ZM24.277 6.231V7.979L24.279 13.341C24.279 13.491 24.226 13.636 24.129 13.751L10.65 29.695C10.265 30.15 9.518 29.88 9.518 29.285V23.921C9.518 23.771 9.571 23.627 9.668 23.512L20.286 10.952H14.764V6.232L24.277 6.231Z" fill="white"/>
<path fill-rule="evenodd" clip-rule="evenodd" d="M41.01 21.565H44.172V14.125C44.172 13.153 44.414 12.266 44.889 11.627C45.361 10.994 46.069 10.593 47.034 10.593C47.808 10.593 48.444 10.875 48.889 11.384C49.336 11.896 49.602 12.652 49.602 13.62V21.565H52.764V13.62C52.764 11.812 52.261 10.299 51.382 9.235C50.502 8.168 49.251 7.562 47.784 7.562C45.731 7.562 44.281 8.49 43.404 9.996C42.629 8.472 41.27 7.562 39.539 7.562C37.806 7.562 36.489 8.292 35.579 9.469V7.96H32.418V21.565H35.579V14.125C35.579 13.158 35.859 12.272 36.374 11.632C36.886 10.995 37.636 10.593 38.602 10.593C39.375 10.593 39.969 10.873 40.372 11.379C40.781 11.889 41.01 12.646 41.01 13.62V21.565ZM68.036 7.96V21.565H71.198V14.337C71.198 12.471 73.09 11.125 75.264 11.125H75.427V7.827H75.264C73.678 7.827 72.214 8.621 71.198 9.907V7.96H68.036ZM77.018 7.8V21.565H80.18V7.799L77.018 7.8ZM97.14 7.96H93.978V9.897C92.919 8.445 91.321 7.562 89.296 7.562C85.323 7.562 82.147 10.717 82.147 14.762C82.147 18.808 85.323 21.963 89.296 21.963C91.321 21.963 92.919 21.08 93.978 19.628V21.565H97.14V7.96ZM114 2.647H110.838V9.897C109.78 8.445 108.181 7.562 106.156 7.562C102.183 7.562 99.007 10.717 99.007 14.762C99.007 18.808 102.183 21.963 106.156 21.963C108.181 21.963 109.78 21.08 110.838 19.628V21.565H114V2.647ZM89.617 19.038C87.163 19.038 85.282 17.17 85.282 14.763C85.282 12.356 87.163 10.487 89.617 10.487C92.046 10.487 93.978 12.357 93.978 14.763C93.978 17.169 92.046 19.038 89.617 19.038ZM102.142 14.763C102.142 17.17 104.023 19.038 106.477 19.038C108.906 19.038 110.838 17.168 110.838 14.763C110.838 12.358 108.906 10.487 106.477 10.487C104.023 10.487 102.142 12.355 102.142 14.763Z" fill="white"/>
<path d="M77.008 5.63H80.173V2.65H77.008V5.63Z" fill="white"/>
<path fill-rule="evenodd" clip-rule="evenodd" d="M55.31 24.245H55.472C56.87 24.245 57.965 23.442 58.479 22.091L58.749 21.382L59.338 19.705H57.667L53.367 7.96H56.576L60.144 17.57L63.71 7.96H66.921L61.512 22.204C60.348 25.242 58.027 27.276 55.472 27.276H55.31V24.245Z" fill="white"/>
</g>
<defs>
<clipPath id="clip0_1_46">
<rect width="114" height="30" fill="white"/>
</clipPath>
</defs>
</svg>
