<svg width="135" height="29" viewBox="0 0 135 29" fill="none" xmlns="http://www.w3.org/2000/svg">
<g clip-path="url(#clip0_84_21)">
<mask id="mask0_84_21" style="mask-type:luminance" maskUnits="userSpaceOnUse" x="0" y="0" width="135" height="29">
<path d="M134.73 0H0.269958V28.08H134.73V0Z" fill="white"/>
</mask>
<g mask="url(#mask0_84_21)">
<path d="M112.972 5.69834C110.673 4.77359 108.291 4.72687 105.93 5.47856C103.277 6.32793 101.487 8.12008 100.526 10.7329C99.9043 12.4317 99.8109 14.1782 100.139 15.9353C100.497 17.8634 101.363 19.5451 102.855 20.8467C104.651 22.4181 106.768 23.1156 109.214 23.0763C110.277 23.1068 111.337 22.949 112.344 22.6102C114.484 21.8787 116.175 20.5707 117.236 18.5535C118.527 16.0967 118.692 13.5156 117.824 10.8932C117.009 8.43646 115.375 6.66343 112.972 5.69834ZM114.687 15.466C114.251 17.6478 112.989 19.1406 110.811 19.6895C108.573 20.2554 106.175 19.8158 104.668 17.8665C103.799 16.7433 103.473 15.4352 103.48 14.1357C103.48 12.2597 103.987 10.6873 105.35 9.4791C106.386 8.56072 107.625 8.16042 108.997 8.14449C111.192 8.12008 112.963 8.92592 114.073 10.8773C114.886 12.3127 115.004 13.8788 114.687 15.4713V15.466Z" fill="#ED6432"/>
<path d="M46.8464 4.97852H46.3667C43.9742 4.97852 41.6797 5.92933 39.9879 7.62174C38.2962 9.31415 37.3458 11.6096 37.3458 14.003V14.0752C37.3458 16.4687 38.2962 18.7641 39.9879 20.4565C41.6797 22.1489 43.9742 23.0997 46.3667 23.0997H46.8464C49.2388 23.0997 51.5333 22.1489 53.2251 20.4565C54.9169 18.7641 55.8673 16.4687 55.8673 14.0752V14.003C55.8673 11.6096 54.9169 9.31415 53.2251 7.62174C51.5333 5.92933 49.2388 4.97852 46.8464 4.97852ZM52.2589 14.2854C52.2589 15.7736 51.668 17.2008 50.6161 18.2531C49.5642 19.3054 48.1376 19.8965 46.65 19.8965H46.5099C45.0223 19.8965 43.5955 19.3054 42.5435 18.2531C41.4915 17.2009 40.9003 15.7737 40.9 14.2854V13.7376C40.9 13.0006 41.0451 12.2708 41.327 11.5899C41.609 10.909 42.0222 10.2903 42.5431 9.76916C43.064 9.24806 43.6825 8.83463 44.3631 8.55259C45.0437 8.2706 45.7732 8.1254 46.5099 8.1254H46.65C48.1377 8.12567 49.5643 8.71708 50.6162 9.76954C51.668 10.822 52.2589 12.2493 52.2589 13.7376V14.2854Z" fill="#ED6432"/>
<path d="M89.4251 19.9379C89.322 19.8575 89.2475 19.7457 89.2129 19.6194C87.7608 15.7003 86.3104 11.7808 84.8616 7.86098L83.8853 5.12817H78.0797L78.1364 5.15046L78.0452 5.15577V22.9564C79.0074 22.9564 79.9352 22.9351 80.8607 22.9669C81.2609 22.9797 81.3732 22.8756 81.371 22.4658C81.3548 17.8389 81.3602 13.2109 81.3591 8.58404V8.20075L81.4655 8.17316C81.5152 8.29207 81.5714 8.40989 81.6129 8.53096C83.0661 12.4331 84.5165 16.3355 85.9643 20.2384L86.9395 22.9712H92.7434L92.6781 22.9436H92.7499V5.15684H89.4251V19.9379Z" fill="#ED6432"/>
<path d="M134.731 5.16934H131.421V19.9345L131.324 19.9472C131.282 19.8411 131.239 19.7349 131.199 19.6213C129.746 15.7001 128.296 11.7785 126.848 7.85652H126.856L125.881 5.12476H120.075L120.128 5.14599L120.032 5.1513V22.9561H122.806C123.349 22.9561 123.35 22.9561 123.35 22.4252C123.35 17.7976 123.35 13.17 123.35 8.54237C123.35 8.42028 123.363 8.29818 123.371 8.17609C123.477 8.26881 123.556 8.3889 123.598 8.52326C125.065 12.4622 126.53 16.4015 127.992 20.3411L128.927 22.9636H134.732L134.667 22.937H134.734L134.731 5.16934Z" fill="#ED6432"/>
<path d="M68.8586 6.46683C67.6069 5.48155 66.1597 5.15348 64.6196 5.14075C62.3408 5.12163 60.0561 5.13544 57.7827 5.13544C57.6768 5.13544 57.5705 5.14498 57.4338 5.15136V22.9243H60.9147V16.9713C61.9018 16.9713 62.8419 16.9915 63.7799 16.9713C64.6121 16.948 65.4593 16.9564 66.272 16.8046C68.1302 16.4575 69.5693 15.4754 70.4111 13.7257C70.9619 12.578 71.0564 11.3506 70.8993 10.1159C70.7092 8.63585 70.0493 7.40535 68.8586 6.46683ZM67.2359 12.1214C66.9006 13.112 66.0684 13.6174 65.0878 13.7034C63.7216 13.8223 62.3441 13.8096 60.9201 13.8488V8.34814C61.0086 8.33507 61.0977 8.32659 61.1874 8.32265C62.2188 8.32265 63.2518 8.30354 64.2832 8.32265C65.1672 8.34393 66.0387 8.46921 66.6911 9.15614C67.5097 10.0225 67.5945 11.0608 67.2359 12.1214Z" fill="#ED6432"/>
<path d="M72.5295 22.9287H75.9531V5.14941H72.5295V22.9287Z" fill="#ED6432"/>
<path d="M94.8375 22.9424H98.2633V5.16309H94.8375V22.9424Z" fill="#ED6432"/>
<path d="M14.9382 20.5122L16.7424 20.354L17.3876 27.7392C18.209 27.5546 19.0121 27.2962 19.7872 26.9673V20.4166H22.0158V25.7676C22.9471 25.1516 23.8021 24.4274 24.5629 23.6102L24.8495 20.3359L26.7598 20.5026C27.8484 18.3992 28.3878 16.0545 28.3281 13.6866C28.2683 11.3187 27.6113 9.00428 26.418 6.95844L26.347 7.77168L24.1183 7.57636L24.4048 4.30416C23.6829 3.55399 22.8803 2.88601 22.0116 2.3124V7.68992H19.7829V1.11373C18.8323 0.70902 17.8395 0.411666 16.823 0.227207L17.4672 7.5944L15.663 7.75256L14.9859 0.0169909C14.7588 0.00637389 14.5295 0 14.3003 0C13.4063 2.39769e-06 12.5144 0.0849685 11.6365 0.253749L12.9101 7.50519L11.5368 7.74727L10.2739 0.586062C9.09672 0.937807 7.97119 1.44366 6.92656 2.0905L8.34865 7.39903L7.27044 7.6889L5.94808 2.74982C4.92775 3.5061 4.01422 4.39679 3.23225 5.39772L3.92102 7.29076L3.13461 7.57739L2.63899 6.21524C1.84616 7.39546 1.23778 8.68968 0.834814 10.0533L1.05768 9.97261L3.92314 17.8409L3.13673 18.1276L0.574798 11.0864C-0.0119554 13.8249 0.232651 16.6763 1.27722 19.2748C2.3218 21.8733 4.11869 24.1003 6.43732 25.6699L5.10647 20.7012L6.18471 20.4113L7.81276 26.4906C8.92818 27.0731 10.1174 27.5017 11.3479 27.7647L10.0924 20.6067L11.4667 20.3646L12.8135 28.0089C13.3091 28.0613 13.8072 28.0876 14.3057 28.0875C14.7397 28.0875 15.1706 28.0673 15.5951 28.028L14.9382 20.5122ZM24.8601 9.7889L27.0835 9.98325L26.3544 18.3261L24.1257 18.1318L24.8601 9.7889ZM19.7903 9.87066H22.019V18.2443H19.7903V9.87066ZM16.7455 9.80699L17.4747 18.1499L15.6705 18.3081L14.9403 9.96516L16.7455 9.80699ZM7.27994 18.2465L5.11389 10.1573L6.19216 9.86856L8.35821 17.9524L7.27994 18.2465ZM11.5463 18.3017L10.0924 10.0554L11.4667 9.81337L12.9196 18.0586L11.5463 18.3017Z" fill="#ED6432"/>
</g>
</g>
<defs>
<clipPath id="clip0_84_21">
<rect width="135" height="28.08" fill="white"/>
</clipPath>
</defs>
</svg>
