<svg width="80" height="81" viewBox="0 0 80 81" fill="none" xmlns="http://www.w3.org/2000/svg">
<path d="M41.8254 58.4605L46.9674 58.0096L48.8064 79.0579C51.1474 78.5317 53.4364 77.7954 55.6452 76.858V58.1881H61.997V73.4388C64.6511 71.683 67.0878 69.6192 69.2563 67.2901L70.073 57.9582L75.5175 58.4333C78.62 52.4383 80.1575 45.7561 79.9873 39.0074C79.8169 32.2587 77.9444 25.6626 74.5434 19.8318L74.3409 22.1496L67.989 21.5929L68.8056 12.267C66.7483 10.129 64.4608 8.22526 61.985 6.59043V21.9166H55.6332V3.17419C52.9239 2.02074 50.0944 1.17327 47.1972 0.647548L49.0332 21.6443L43.8912 22.0951L41.9614 0.0484249C41.3142 0.0181659 40.6608 0 40.0075 0C37.4596 6.83352e-06 34.9176 0.242164 32.4155 0.723196L36.0452 21.3901L32.1312 22.08L28.5319 1.6703C25.177 2.67279 21.9692 4.1145 18.992 5.958L23.045 21.0875L19.972 21.9137L16.2032 7.8371C13.2952 9.99253 10.6917 12.531 8.463 15.3837L10.426 20.779L8.18472 21.5959L6.77219 17.7137C4.5126 21.0774 2.77869 24.7659 1.63021 28.6523L2.26538 28.4224L10.4321 50.8473L8.19077 51.6644L0.889158 31.5966C-0.783114 39.4014 -0.0859757 47.5282 2.8911 54.934C5.86819 62.3398 10.9894 68.6867 17.5976 73.1603L13.8046 58.9992L16.8776 58.173L21.5176 75.4994C24.6966 77.1595 28.0859 78.381 31.5929 79.1305L28.0146 58.7299L31.9316 58.0399L35.7699 79.8265C37.1826 79.9759 38.6022 80.0507 40.0227 80.0504C41.2598 80.0504 42.4877 79.9928 43.6977 79.881L41.8254 58.4605ZM70.1032 27.8988L76.44 28.4527L74.362 52.2301L68.0101 51.6764L70.1032 27.8988ZM55.6542 28.1318H62.0061V51.9971H55.6542V28.1318ZM46.9765 27.9503L49.0544 51.7279L43.9124 52.1787L41.8314 28.4011L46.9765 27.9503ZM19.9991 52.0033L13.8258 28.9489L16.8989 28.1258L23.0722 51.1651L19.9991 52.0033ZM32.1584 52.1605L28.0146 28.6583L31.9316 27.9685L36.0723 51.4677L32.1584 52.1605Z" fill="#ED6432"/>
</svg>
