<svg width="158" height="31" viewBox="0 0 158 31" fill="none" xmlns="http://www.w3.org/2000/svg">
<g clip-path="url(#clip0_1_47)">
<path d="M39.8022 23.1314V16.7519H43.341C44.6555 16.7519 45.793 16.5494 46.7282 16.119C47.6635 15.6887 48.3965 15.0811 48.8768 14.271C49.3571 13.4609 49.6099 12.4989 49.6099 11.385C49.6099 10.3218 49.3571 9.35979 48.8768 8.52438C48.3713 7.68896 47.6635 7.03076 46.7029 6.57508C45.7424 6.1194 44.6302 5.86625 43.3158 5.86625H36.7183V23.1061H39.8022V23.1314ZM43.341 14.2963H39.8022V8.37248H43.341C44.0741 8.37248 44.6807 8.52438 45.161 8.80285C45.6413 9.08132 45.9952 9.46105 46.2227 9.91673C46.4502 10.3724 46.5766 10.8787 46.5766 11.4357C46.5766 12.3217 46.3238 13.0305 45.793 13.5368C45.2621 14.0432 44.4532 14.2963 43.341 14.2963ZM57.2437 23.3593C58.457 23.3593 59.5187 23.0808 60.4287 22.5238C61.3386 21.9669 62.0211 21.1821 62.5014 20.1948C62.9817 19.2075 63.2092 18.0936 63.2092 16.8532V16.6C63.2092 15.3596 62.9817 14.2457 62.5014 13.2584C62.0211 12.2711 61.3386 11.4863 60.4287 10.9293C59.5187 10.3724 58.457 10.0939 57.2184 10.0939C56.0051 10.0939 54.9434 10.3724 54.0587 10.9293C53.1487 11.4863 52.4662 12.2711 51.986 13.2584C51.5057 14.2457 51.2782 15.3596 51.2782 16.6V16.8532C51.2782 18.0936 51.5057 19.2075 51.986 20.1948C52.4662 21.1821 53.1487 21.9669 54.0587 22.5238C54.9687 23.0808 56.0304 23.3593 57.2437 23.3593ZM57.2437 20.9796C56.2326 20.9796 55.4743 20.5999 54.9687 19.8151C54.4632 19.0303 54.2104 18.043 54.2104 16.8279V16.5747C54.2104 15.7899 54.3115 15.1064 54.539 14.4735C54.7665 13.8406 55.0951 13.3343 55.5501 12.9799C56.0051 12.6002 56.5612 12.423 57.2184 12.423C57.9009 12.423 58.457 12.6002 58.912 12.9799C59.367 13.3596 59.6956 13.8406 59.9231 14.4735C60.1506 15.1064 60.2517 15.7899 60.2517 16.5747V16.8279C60.2517 17.6126 60.1506 18.3215 59.9231 18.929C59.6956 19.5619 59.367 20.0429 58.912 20.4227C58.4823 20.8024 57.9009 20.9796 57.2437 20.9796ZM68.7197 23.1314V4.92958H65.7875V23.1314H68.7197ZM72.941 28.2958C74.0533 28.2958 74.9127 27.9667 75.5194 27.3338C76.126 26.7009 76.581 25.9414 76.9096 25.0554L82.0157 10.2965H78.8813L76.303 18.9037L73.6488 10.2965H70.4638L74.9632 23.0555L74.5588 24.144C74.3566 24.7769 74.0533 25.2073 73.6994 25.4604C73.3202 25.7136 72.7894 25.8402 72.1069 25.8402L71.5508 25.8149V28.0679C72.1069 28.2198 72.5619 28.2958 72.941 28.2958ZM86.5656 23.1314V13.8659C87.0459 12.9546 87.8295 12.4736 88.967 12.4736C89.7001 12.4736 90.2814 12.6508 90.6606 13.0305C91.0398 13.4103 91.242 14.0178 91.242 14.8786V23.1567H94.1742V14.6254V14.3469C94.3511 13.79 94.6292 13.3343 95.0589 13.0052C95.4633 12.6761 95.9942 12.4989 96.6008 12.4989C97.3592 12.4989 97.9153 12.6761 98.2944 13.0052C98.6736 13.3596 98.8505 13.9672 98.8505 14.8279V23.1314H101.783V14.8532C101.783 13.2077 101.429 11.9926 100.696 11.2331C99.988 10.4737 98.9516 10.0939 97.5867 10.0939C96.7272 10.0939 95.9689 10.2711 95.3117 10.6002C94.6545 10.9547 94.0984 11.4357 93.6686 12.0432C93.34 11.385 92.885 10.8787 92.2784 10.5749C91.6717 10.2458 90.9892 10.0939 90.1803 10.0939C89.3967 10.0939 88.689 10.2205 88.057 10.499C87.4504 10.7775 86.9195 11.1572 86.4898 11.6888L86.3887 10.3471H83.6334V23.1567H86.5656V23.1314ZM108.633 23.3593C109.341 23.3593 109.973 23.2327 110.529 22.9795C111.085 22.7264 111.565 22.3719 111.97 21.9416C112.071 22.4732 112.172 22.8529 112.298 23.1314H115.306V22.9289C114.978 22.2454 114.826 21.3087 114.826 20.1442V14.4988C114.826 13.5368 114.624 12.7267 114.194 12.0685C113.764 11.4103 113.183 10.904 112.45 10.5749C111.692 10.2458 110.832 10.0686 109.872 10.0686C108.835 10.0686 107.9 10.2458 107.091 10.6256C106.282 11.0053 105.65 11.4863 105.22 12.0939C104.791 12.7014 104.563 13.3343 104.563 14.0178H107.495C107.495 13.6887 107.597 13.4103 107.774 13.1318C107.95 12.8786 108.203 12.6761 108.532 12.5242C108.86 12.3723 109.24 12.2964 109.669 12.2964C110.402 12.2964 110.933 12.4989 111.312 12.8786C111.692 13.2584 111.868 13.79 111.868 14.4735V15.3089H110.099C108.229 15.3089 106.813 15.6633 105.777 16.3975C104.765 17.1316 104.26 18.1696 104.26 19.5366C104.26 20.2708 104.437 20.929 104.816 21.5112C105.195 22.0935 105.701 22.5492 106.358 22.8783C107.04 23.2074 107.774 23.3593 108.633 23.3593ZM109.189 21.0049C108.557 21.0049 108.077 20.853 107.723 20.5239C107.369 20.1948 107.192 19.7645 107.192 19.2581C107.192 18.5746 107.445 18.0683 107.976 17.6886C108.507 17.3089 109.29 17.1316 110.301 17.1316H111.843V19.5113C111.616 19.9163 111.262 20.2708 110.807 20.5746C110.352 20.8783 109.796 21.0049 109.189 21.0049ZM120.716 23.1314V14.3976C121.171 13.4103 122.055 12.9293 123.37 12.9293C123.749 12.9293 124.153 12.9546 124.533 13.0305L124.558 10.2458C124.457 10.1952 124.305 10.1699 124.103 10.1446C123.901 10.1193 123.698 10.0939 123.547 10.0939C122.915 10.0939 122.359 10.2458 121.878 10.5243C121.398 10.8281 120.994 11.2331 120.665 11.7648L120.589 10.3218H117.783V23.1314H120.716ZM129.285 23.1314V18.9797L130.574 17.6633L134.29 23.1314H137.702L132.47 15.638L137.222 10.2965H133.683L130.195 14.271L129.31 15.3596V4.92958H126.378V23.1314H129.285ZM144.653 23.3593C145.816 23.3593 146.827 23.1314 147.661 22.6757C148.496 22.2201 149.128 21.6378 149.608 20.9543L148.041 19.4354C147.232 20.4733 146.17 21.0049 144.856 21.0049C144.198 21.0049 143.642 20.853 143.162 20.5746C142.682 20.2961 142.303 19.891 141.999 19.3847C141.721 18.8784 141.544 18.2962 141.494 17.638H149.835V16.3975C149.835 15.1317 149.633 14.0432 149.229 13.0812C148.824 12.1192 148.218 11.385 147.383 10.8534C146.575 10.3218 145.538 10.0686 144.35 10.0686C143.238 10.0686 142.252 10.3471 141.367 10.8787C140.483 11.4357 139.8 12.1951 139.295 13.1824C138.789 14.1697 138.536 15.3342 138.536 16.6506V17.1316C138.536 18.2962 138.789 19.3594 139.269 20.2961C139.775 21.2328 140.483 21.9669 141.418 22.5238C142.328 23.0808 143.415 23.3593 144.653 23.3593ZM146.903 15.5115H141.544C141.671 14.5495 141.974 13.79 142.454 13.2584C142.935 12.7268 143.541 12.4483 144.325 12.4483C145.184 12.4483 145.842 12.7268 146.246 13.2584C146.65 13.79 146.878 14.4735 146.928 15.3089V15.5115H146.903ZM156.079 23.3593C156.787 23.3593 157.419 23.258 158 23.0808V20.8024C157.646 20.8783 157.318 20.929 156.989 20.929C156.559 20.929 156.205 20.8277 156.003 20.6505C155.776 20.448 155.674 20.0936 155.674 19.5619V12.5242H157.924V10.3471H155.674V7.23328H152.742V10.3471H150.67V12.5242H152.742V19.7645C152.742 21.0302 153.046 21.9416 153.652 22.5238C154.234 23.0808 155.043 23.3593 156.079 23.3593Z" fill="#1B57FB"/>
<path d="M24.4789 30.5211L0 23.6907V7.30933L24.4789 0.478874V30.5211ZM22.1132 17.4082L4.10988 22.4185L22.1132 27.4288V17.4082ZM2.36569 10.4799V20.5201L20.369 15.5098L2.36569 10.4799ZM22.1132 3.53203L4.10988 8.5619L22.1132 13.5722V3.53203Z" fill="#1B57FB"/>
</g>
<defs>
<clipPath id="clip0_1_47">
<rect width="158" height="31" fill="white"/>
</clipPath>
</defs>
</svg>
